<svg xmlns="http://www.w3.org/2000/svg" xmlns:xlink="http://www.w3.org/1999/xlink" viewBox="0,0,256,256" width="150px" height="150px"><g fill="#1c9ad4" fill-rule="nonzero" stroke="none" stroke-width="1" stroke-linecap="butt" stroke-linejoin="miter" stroke-miterlimit="10" stroke-dasharray="" stroke-dashoffset="0" font-family="none" font-weight="none" font-size="none" text-anchor="none" style="mix-blend-mode: normal"><g transform="scale(5.12,5.12)"><path d="M43.64063,1.00195c-1.46338,-0.04058 -3.02891,0.76641 -4.58203,2.14453c-0.369,0.328 -0.73752,0.69208 -1.10352,1.08008c-4.25,4.509 -8.19588,12.86028 -9.42187,19.23828c0.477,0.968 0.85166,2.20444 1.09766,3.14844c0.063,0.242 0.11906,0.46811 0.16406,0.66211c0.108,0.458 0.16602,0.75391 0.16602,0.75391c0,0 -0.03736,-0.14366 -0.19336,-0.59766c-0.03,-0.087 -0.06452,-0.18097 -0.10352,-0.29297c-0.017,-0.046 -0.03845,-0.10211 -0.06445,-0.16211c-0.277,-0.645 -1.04481,-2.00566 -1.38281,-2.59766c-0.289,0.852 -0.54286,1.64814 -0.75586,2.36914c0.974,1.783 1.56641,4.83789 1.56641,4.83789c0,0 -0.04992,-0.19767 -0.29492,-0.88867c-0.217,-0.611 -1.29964,-2.50912 -1.55664,-2.95312c-0.439,1.62 -0.61403,2.71447 -0.45703,2.98047c0.305,0.516 0.59656,1.40467 0.85156,2.38867c0.089,0.341 0.17195,0.69292 0.25195,1.04492c-0.265,2.327 -0.32722,4.66452 -0.19922,6.97852c0.133,2.508 0.48386,4.98378 0.88086,7.42578c0.042,0.257 0.27802,0.44297 0.54102,0.41797c0.275,-0.026 0.47717,-0.26992 0.45117,-0.54492c-0.125,-1.331 -0.23083,-2.65842 -0.29883,-3.98242l0.06055,0.59375c-0.095,-1.189 -0.12131,-2.46903 -0.07031,-3.83203c0.181,-4.834 1.29461,-10.66423 3.34961,-16.74023c3.473,-9.172 8.29022,-16.53287 12.69922,-20.04687c-4.019,3.63 -9.45794,15.37947 -11.08594,19.73047c-1.823,4.872 -3.11553,9.44322 -3.89453,13.82422c1.344,-4.107 5.6875,-5.87109 5.6875,-5.87109c0,0 2.13209,-2.62881 4.62109,-6.38281c-1.491,0.34 -3.94172,0.92258 -4.76172,1.26758c-1.21,0.508 -1.53516,0.68164 -1.53516,0.68164c0,0 3.91925,-2.38775 7.28125,-3.46875c4.625,-7.284 9.66384,-17.6322 4.58984,-22.1582c-0.77963,-0.69525 -1.62002,-1.02448 -2.49805,-1.04883zM9,3c-2.21,0 -4,1.79 -4,4v33c0,2.21 1.79,4 4,4h16.84961c-0.1,-0.9 -0.16875,-1.82977 -0.21875,-2.75977c-0.13,-2.32 -0.08008,-4.67094 0.16992,-6.96094c-0.06,-0.23 -0.10992,-0.45016 -0.16992,-0.66016c-0.34,-1.32 -0.57086,-1.76891 -0.63086,-1.87891c-0.45,-0.75 -0.52977,-1.65953 0.24023,-4.51953c0.661,-2.265 3.54614,-16.0577 11.11914,-24.2207z"></path></g></g></svg>